<?xml version="1.0" encoding="utf-8"?>
<!-- Generator: Adobe Illustrator 16.0.0, SVG Export Plug-In . SVG Version: 6.00 Build 0)  -->
<!DOCTYPE svg PUBLIC "-//W3C//DTD SVG 1.1//EN" "http://www.w3.org/Graphics/SVG/1.1/DTD/svg11.dtd">
<svg version="1.1" xmlns="http://www.w3.org/2000/svg" xmlns:xlink="http://www.w3.org/1999/xlink" x="0px" y="0px" width="371px"
	 height="347px" viewBox="0 0 371 347" enable-background="new 0 0 371 347" xml:space="preserve">
<g id="Layer_3" display="none">
	<rect x="-107" y="49" display="inline" fill="#9FBEA7" width="301" height="280"/>
</g>
<g id="Layer_2">
	<g>
		<path fill="#F0E0BF" stroke="#000000" stroke-miterlimit="10" d="M336.1,210.2c0-38-29.1-69.1-66.3-72.3c-1-0.2-2.1-0.3-3.2-0.3
			H128.5c-3-17.5-11.7-30.1-21.9-30.1v32.8c-28.3,8-49.5,32.8-52.4,62.8c-12.6,9.5-33.1,13-33.1,13V236h37.5
			c9,23.6,29.9,41.3,55.4,45.7c2,0.7,4.1,1.1,6.3,1.1h1.7v24.9c0,11.1,9,20,20,20s20-9,20-20v-24.9h75.8v24.9c0,11.1,9,20,20,20
			c11.1,0,20-9,20-20v-26.3C311.1,274.7,336.1,245.4,336.1,210.2z"/>
		<path fill="none" stroke="#000000" stroke-linecap="round" stroke-miterlimit="10" d="M107.4,108.3c15.9-2.7,36.3,51.9,7.6,58"/>
		<ellipse fill="#C5B8A2" stroke="#000000" stroke-miterlimit="10" cx="22.1" cy="226.2" rx="5.9" ry="9.9"/>
		<path fill="none" stroke="#000000" stroke-miterlimit="10" d="M96.4,224.3L96.4,224.3c0,6.5-5.2,11.7-11.7,11.7H28.4"/>
		<path fill="none" stroke="#000000" stroke-linecap="round" stroke-miterlimit="10" d="M93.5,187.7c0,4.9-3.9,8.8-8.8,8.8
			c-4.9,0-8.8-3.9-8.8-8.8"/>
		<path fill="none" stroke="#000000" stroke-linecap="round" stroke-miterlimit="10" d="M90.6,224.4c4.4-2,9.6,0,11.6,4.4"/>
		<path fill="none" stroke="#000000" stroke-linecap="round" stroke-miterlimit="10" d="M354.6,201.8c2.3,0,4.2,1.9,4.2,4.2l0,0
			c0,2.3-1.9,4.2-4.2,4.2h-14.2c-2.3,0-4.2-1.9-4.2-4.2l0,0"/>
		<path fill="none" stroke="#000000" stroke-linecap="round" stroke-miterlimit="10" d="M358.8,205.9c0-2.3-1.9-4.2-4.2-4.2l0,0
			c-2.3,0-4.2,1.9-4.2,4.2l-0.1,14.2"/>
		<line fill="none" stroke="#000000" stroke-linecap="round" stroke-miterlimit="10" x1="163.5" y1="278" x2="226.1" y2="278"/>
		<line fill="none" stroke="#000000" stroke-linecap="round" stroke-miterlimit="10" x1="228.9" y1="278" x2="237.3" y2="278"/>
		<line fill="none" stroke="#000000" stroke-linecap="round" stroke-miterlimit="10" x1="156.9" y1="282.7" x2="156.9" y2="305.4"/>
		<line fill="none" stroke="#000000" stroke-linecap="round" stroke-miterlimit="10" x1="273.3" y1="282.7" x2="273.3" y2="305.4"/>
		<line fill="none" stroke="#000000" stroke-linecap="round" stroke-miterlimit="10" x1="157.5" y1="144.3" x2="241.3" y2="144.3"/>
		<path fill="none" stroke="#000000" stroke-linecap="round" stroke-miterlimit="10" d="M328.6,214.3c0.2,30.3-23.3,57.8-54,60.5"/>
		<circle fill="#FFFFFF" stroke="#000000" stroke-linecap="round" stroke-miterlimit="10" cx="190" cy="86.1" r="32.5"/>
		<line fill="none" stroke="#000000" stroke-linecap="round" stroke-miterlimit="10" x1="190" y1="53.6" x2="190" y2="118.6"/>
		<line fill="none" stroke="#000000" stroke-linecap="round" stroke-miterlimit="10" x1="157.5" y1="86.1" x2="222.5" y2="86.1"/>
		<line fill="none" stroke="#000000" stroke-linecap="round" stroke-miterlimit="10" x1="167" y1="63.1" x2="212.9" y2="109"/>
		<line fill="none" stroke="#000000" stroke-linecap="round" stroke-miterlimit="10" x1="167" y1="109" x2="212.9" y2="63.1"/>
		<line fill="none" stroke="#000000" stroke-linecap="round" stroke-miterlimit="10" x1="161.8" y1="69.8" x2="218.1" y2="102.3"/>
		<line fill="none" stroke="#000000" stroke-linecap="round" stroke-miterlimit="10" x1="173.7" y1="114.2" x2="206.2" y2="57.9"/>
		<line fill="none" stroke="#000000" stroke-linecap="round" stroke-miterlimit="10" x1="158.6" y1="94.5" x2="221.4" y2="77.7"/>
		<line fill="none" stroke="#000000" stroke-linecap="round" stroke-miterlimit="10" x1="198.4" y1="117.4" x2="181.6" y2="54.7"/>
		<line fill="none" stroke="#000000" stroke-linecap="round" stroke-miterlimit="10" x1="161.8" y1="102.3" x2="218.1" y2="69.8"/>
		<line fill="none" stroke="#000000" stroke-linecap="round" stroke-miterlimit="10" x1="206.2" y1="114.2" x2="173.7" y2="57.9"/>
		<line fill="none" stroke="#000000" stroke-linecap="round" stroke-miterlimit="10" x1="181.6" y1="117.4" x2="198.4" y2="54.7"/>
		<line fill="none" stroke="#000000" stroke-linecap="round" stroke-miterlimit="10" x1="221.4" y1="94.5" x2="158.6" y2="77.7"/>
		<circle fill="#FFFFFF" stroke="#000000" stroke-linecap="round" stroke-miterlimit="10" cx="190" cy="86.1" r="25.2"/>
		<path fill="#F7F391" stroke="#000000" stroke-miterlimit="10" d="M190,111.2c-13.9,0-25.2-11.3-25.2-25.2
			c0-13.9,11.3-25.2,25.2-25.2"/>
		<g>
			<path d="M197,79.9c-0.1-0.1-0.2-0.1-0.4-0.1h-2.7c-0.2-0.9-0.5-1.7-1-2.3h3.7c0.2,0,0.3,0,0.4-0.1c0.1-0.1,0.1-0.2,0.1-0.4v-1.6
				c0-0.1,0-0.3-0.1-0.4c-0.1-0.1-0.2-0.1-0.4-0.1h-13.3c-0.1,0-0.3,0-0.4,0.1c-0.1,0.1-0.1,0.2-0.1,0.4v2.1c0,0.1,0.1,0.3,0.2,0.4
				c0.1,0.1,0.2,0.2,0.4,0.2h2.3c2.3,0,3.7,0.6,4.3,1.8h-6.6c-0.1,0-0.3,0-0.4,0.1c-0.1,0.1-0.1,0.2-0.1,0.4v1.6
				c0,0.1,0,0.3,0.1,0.4c0.1,0.1,0.2,0.1,0.4,0.1h6.8c-0.2,0.9-0.8,1.5-1.6,2c-0.9,0.5-2,0.7-3.4,0.7h-1.8c-0.1,0-0.3,0.1-0.4,0.2
				s-0.2,0.2-0.2,0.4v2c0,0.1,0,0.3,0.1,0.4c2.1,2.2,4.7,5.2,8,9.1c0.1,0.1,0.2,0.2,0.4,0.2h3.1c0.2,0,0.4-0.1,0.5-0.3
				c0.1-0.2,0.1-0.4-0.1-0.5c-3.1-3.8-5.6-6.7-7.3-8.6c1.8-0.2,3.3-0.8,4.4-1.8c1.1-1,1.8-2.2,2.1-3.7h2.7c0.1,0,0.3,0,0.4-0.1
				c0.1-0.1,0.1-0.2,0.1-0.4v-1.6C197.2,80.1,197.1,80,197,79.9z"/>
		</g>
		<line fill="none" stroke="#000000" stroke-linecap="round" stroke-miterlimit="10" x1="157.1" y1="36.2" x2="157.1" y2="87.8"/>
		<line fill="none" stroke="#000000" stroke-linecap="round" stroke-miterlimit="10" x1="223" y1="36.2" x2="223" y2="87.8"/>
		<line fill="none" stroke="#000000" stroke-linecap="round" stroke-miterlimit="10" x1="163.2" y1="28.9" x2="163.2" y2="49.5"/>
		<line fill="none" stroke="#000000" stroke-linecap="round" stroke-miterlimit="10" x1="169.4" y1="34" x2="169.4" y2="54.7"/>
		<line fill="none" stroke="#000000" stroke-linecap="round" stroke-miterlimit="10" x1="219.2" y1="44.3" x2="219.2" y2="65"/>
		<line fill="none" stroke="#000000" stroke-linecap="round" stroke-miterlimit="10" x1="181.6" y1="28.9" x2="181.6" y2="40.6"/>
		<line fill="none" stroke="#000000" stroke-linecap="round" stroke-miterlimit="10" x1="163.2" y1="19.7" x2="163.2" y2="24.1"/>
		<line fill="none" stroke="#000000" stroke-linecap="round" stroke-miterlimit="10" x1="219.2" y1="36.2" x2="219.2" y2="39.1"/>
		<line fill="none" stroke="#000000" stroke-linecap="round" stroke-miterlimit="10" x1="181.6" y1="24.1" x2="181.6" y2="25.6"/>
		
			<line fill="#F0E0BF" stroke="#000000" stroke-width="3" stroke-linecap="round" stroke-miterlimit="10" x1="65.6" y1="328.3" x2="171.9" y2="328.3"/>
		
			<line fill="#F0E0BF" stroke="#000000" stroke-width="3" stroke-linecap="round" stroke-miterlimit="10" x1="230.3" y1="328.3" x2="294.2" y2="328.3"/>
		
			<line fill="#F0E0BF" stroke="#000000" stroke-width="3" stroke-linecap="round" stroke-miterlimit="10" x1="178" y1="328.3" x2="185.9" y2="328.3"/>
		
			<line fill="#F0E0BF" stroke="#000000" stroke-width="3" stroke-linecap="round" stroke-miterlimit="10" x1="198.8" y1="328.3" x2="219.3" y2="328.3"/>
		
			<line fill="#F0E0BF" stroke="#000000" stroke-width="3" stroke-linecap="round" stroke-miterlimit="10" x1="189" y1="328.3" x2="192.9" y2="328.3"/>
		<circle fill="none" stroke="#000000" stroke-linecap="round" stroke-miterlimit="10" cx="19.2" cy="226.2" r="1.8"/>
		<circle fill="none" stroke="#000000" stroke-linecap="round" stroke-miterlimit="10" cx="25.1" cy="226.2" r="1.8"/>
	</g>
</g>
</svg>
