<?xml version="1.0" encoding="utf-8"?>
<!DOCTYPE svg PUBLIC "-//W3C//DTD SVG 1.1//EN" "http://www.w3.org/Graphics/SVG/1.1/DTD/svg11.dtd">
<!-- Author: Kamanashish Roy | SVGfy.com  -->
<svg version="1.1" id="Layer_1" xmlns="http://www.w3.org/2000/svg" xmlns:xlink="http://www.w3.org/1999/xlink" x="0px" y="0px"
	 width="300px" height="249.5px" viewBox="0 0 300 249.5" enable-background="new 0 0 300 249.5" xml:space="preserve">
     <style>
	 	.path {
  stroke-dasharray: 1000;
  stroke-dashoffset: 1000;
  animation: dash 5s infinite ;
}


@keyframes dash {
  from {
    stroke-dashoffset: 1000;
  }
  to {
    stroke-dashoffset: 0;
  }
}
    </style>

<g id="Layer_3">
	<path class="path" fill="none" stroke="#FFFFFF" stroke-width="2" stroke-linecap="round" stroke-miterlimit="10" d="M82.7,136.5H48.5
		c-1.7,0-3-1.3-3-3v-8c0-1.7,1.3-3,3-3h34.2"/>
	<path class="path" fill="none" stroke="#FFFFFF" stroke-width="2" stroke-linecap="round" stroke-miterlimit="10" d="M139.8,122.5h115.8
		c1.7,0,3,1.3,3,3v8c0,1.7-1.3,3-3,3H139"/>
	<path class="path" fill="none" stroke="#FFFFFF" stroke-width="2" stroke-linecap="round" stroke-miterlimit="10" d="M138,157.5c0,1.7-1.3,3-3,3
		H87c-1.7,0-3-1.3-3-3v-55c0-1.7,1.3-3,3-3h48c1.7,0,3,1.3,3,3V157.5z"/>
	<path class="path" fill="none" stroke="#FFFFFF" stroke-width="2" stroke-linecap="round" stroke-miterlimit="10" d="M138,177.5c0,1.7-1.3,3-3,3
		H87c-1.7,0-3-1.3-3-3V175c0-1.7,1.3-3,3-3h48c1.7,0,3,1.3,3,3V177.5z"/>
	
		<line class="path" fill="none" stroke="#FFFFFF" stroke-width="2" stroke-linecap="round" stroke-miterlimit="10" x1="111" y1="130" x2="111" y2="172"/>
	
		<line class="path" fill="none" stroke="#FFFFFF" stroke-width="2" stroke-linecap="round" stroke-miterlimit="10" x1="111" y1="180.5" x2="111" y2="212.5"/>
	
		<line class="path" fill="none" stroke="#FFFFFF" stroke-width="2" stroke-linecap="round" stroke-miterlimit="10" x1="111" y1="212.5" x2="93.8" y2="229.8"/>
	
		<line class="path" fill="none" stroke="#FFFFFF" stroke-width="2" stroke-linecap="round" stroke-miterlimit="10" x1="111" y1="212.5" x2="127.9" y2="229.4"/>
	<path class="path" fill="none" stroke="#FFFFFF" stroke-width="2" stroke-linecap="round" stroke-miterlimit="10" d="M218,177.5c0,1.7-1.3,3-3,3
		h-48c-1.7,0-3-1.3-3-3V175c0-1.7,1.3-3,3-3h48c1.7,0,3,1.3,3,3V177.5z"/>
	
		<line class="path" fill="none" stroke="#FFFFFF" stroke-width="2" stroke-linecap="round" stroke-miterlimit="10" x1="191" y1="180.5" x2="191" y2="212.5"/>
	
		<line class="path" fill="none" stroke="#FFFFFF" stroke-width="2" stroke-linecap="round" stroke-miterlimit="10" x1="191" y1="212.5" x2="173.8" y2="229.8"/>
	
		<line class="path" fill="none" stroke="#FFFFFF" stroke-width="2" stroke-linecap="round" stroke-miterlimit="10" x1="191" y1="212.5" x2="207.9" y2="229.4"/>
	
		<line class="path" fill="none" stroke="#FFFFFF" stroke-width="2" stroke-linecap="round" stroke-miterlimit="10" x1="102.4" y1="130" x2="119.4" y2="130"/>
	
		<line class="path" fill="none" stroke="#FFFFFF" stroke-width="2" stroke-linecap="round" stroke-miterlimit="10" x1="45.5" y1="128" x2="45.5" y2="229.4"/>
	
		<line class="path" fill="none" stroke="#FFFFFF" stroke-width="2" stroke-linecap="round" stroke-miterlimit="10" x1="258.5" y1="128" x2="258.5" y2="229.4"/>
	<path class="path" fill="none" stroke="#FFFFFF" stroke-width="2" stroke-linecap="round" stroke-miterlimit="10" d="M247.5,101c0,1.7-1.3,3-3,3
		h-67.8c-1.7,0-3-1.3-3-3V63.5c0-1.7,1.3-3,3-3h67.8c1.7,0,3,1.3,3,3V101z"/>
	<path class="path" fill="none" stroke="#FFFFFF" stroke-width="2" stroke-linecap="round" stroke-miterlimit="10" d="M216,104
		c0,10.2,8.3,18.5,18.5,18.5"/>
	<path class="path" fill="none" stroke="#FFFFFF" stroke-width="2" stroke-linecap="round" stroke-miterlimit="10" d="M204.5,104
		c0,10.2-8.3,18.5-18.5,18.5"/>
	<path class="path" fill="none" stroke="#FFFFFF" stroke-width="2" stroke-linecap="round" stroke-miterlimit="10" d="M52.9,122.5
		c0-5.2,4.8-9.5,10.7-9.5s10.7,4.3,10.7,9.5"/>
	
		<line class="path" fill="none" stroke="#FFFFFF" stroke-width="2" stroke-linecap="round" stroke-miterlimit="10" x1="63.7" y1="113" x2="63.7" y2="72"/>
	
		<line class="path" fill="none" stroke="#FFFFFF" stroke-width="2" stroke-linecap="round" stroke-miterlimit="10" x1="63.7" y1="64" x2="93.8" y2="36.5"/>
	<path class="path" fill="none" stroke="#FFFFFF" stroke-width="2" stroke-linecap="round" stroke-miterlimit="10" d="M95,56.7
		c-3.5-4.7-2.6-11.4,2.1-14.9c4.7-3.5,11.4-2.6,14.9,2.1"/>
	<path class="path" fill="none" stroke="#FFFFFF" stroke-width="2" stroke-linecap="round" stroke-miterlimit="10" d="M93.8,44.3
		c-1.9-2.6-2-5.8-0.2-7.2c1.8-1.4,4.9-0.4,6.8,2.2"/>
	
		<line class="path" fill="none" stroke="#FFFFFF" stroke-width="2" stroke-linecap="round" stroke-miterlimit="10" x1="112" y1="43.9" x2="95" y2="56.7"/>
	<circle fill="none" stroke="#FFFFFF" stroke-width="2" stroke-linecap="round" stroke-miterlimit="10" cx="63.3" cy="68" r="4"/>
</g>
</svg>
